<svg xmlns="http://www.w3.org/2000/svg" xmlns:xlink="http://www.w3.org/1999/xlink" width="21.831" height="21.652" viewBox="0 0 21.831 21.652">
  <defs>
    <clipPath id="clip-path">
      <rect id="Прямоугольник_111" data-name="Прямоугольник 111" width="21.831" height="21.652" fill="none" stroke="#000" stroke-width="1"/>
    </clipPath>
  </defs>
  <g id="Сгруппировать_29" data-name="Сгруппировать 29" transform="translate(0 0)">
    <g id="Сгруппировать_28" data-name="Сгруппировать 28" transform="translate(0 0)" clip-path="url(#clip-path)">
      <path id="Контур_1" data-name="Контур 1" d="M4.95.454,8.384,3.887a1.036,1.036,0,0,1,0,1.465L6.7,7.034c-.123.123-.121.654.131,1.382a9.206,9.206,0,0,0,6.332,5.927c.41.106.845.171.933.085l1.682-1.684a1.036,1.036,0,0,1,1.465,0l3.682,3.682a1.036,1.036,0,0,1,0,1.465L17.815,21c-.387.385-7.028-1.692-11.427-6.013S-.17,4.109.189,3.749l3.3-3.3A1.036,1.036,0,0,1,4.95.454Z" transform="translate(0.228 0.228)" fill="none" stroke="#000" stroke-miterlimit="10" stroke-width="1"/>
    </g>
  </g>
</svg>
